<?xml version="1.0" encoding="UTF-8" standalone="no"?>
<!DOCTYPE svg PUBLIC "-//W3C//DTD SVG 1.1//EN"
 "http://www.w3.org/Graphics/SVG/1.1/DTD/svg11.dtd">
<!-- Generated by graphviz version 14.0.5 (20251129.0827)
 -->
<!-- Pages: 1 -->
<svg width="433pt" height="495pt"
 viewBox="0.00 0.00 433.00 495.00" xmlns="http://www.w3.org/2000/svg" xmlns:xlink="http://www.w3.org/1999/xlink">
<g id="graph0" class="graph" transform="scale(1 1) rotate(0) translate(4 491.25)">
<polygon fill="white" stroke="none" points="-4,4 -4,-491.25 428.75,-491.25 428.75,4 -4,4"/>
<!-- &#45;1191758304246453491 -->
<g id="node1" class="node">
<title>&#45;1191758304246453491</title>
<g id="a_node1"><a xlink:title="A Materialized Layer with 321 Tasks.&#10;Array Shape: (321, 3, 3)&#10;Data Type: float64&#10;Chunk Size: (1, 3, 3)&#10;Chunk Type: numpy.ndarray&#10;">
<polygon fill="none" stroke="black" points="227.25,-487.25 51.5,-487.25 51.5,-451.25 227.25,-451.25 227.25,-487.25"/>
<text xml:space="preserve" text-anchor="middle" x="139.38" y="-462.25" font-family="Helvetica,sans-Serif" font-size="20.00">concatenate&#45;#0</text>
</a>
</g>
</g>
<!-- 323776720891170730 -->
<g id="node2" class="node">
<title>323776720891170730</title>
<g id="a_node2"><a xlink:title="A Materialized Layer with 1 Tasks.&#10;Array Shape: (1, 3, 3)&#10;Data Type: float64&#10;Chunk Size: (1, 3, 3)&#10;Chunk Type: numpy.ndarray&#10;">
<polygon fill="none" stroke="black" points="119.25,-415.25 15.5,-415.25 15.5,-379.25 119.25,-379.25 119.25,-415.25"/>
<text xml:space="preserve" text-anchor="middle" x="67.38" y="-390.25" font-family="Helvetica,sans-Serif" font-size="20.00">array&#45;#1</text>
</a>
</g>
</g>
<!-- 323776720891170730&#45;&gt;&#45;1191758304246453491 -->
<g id="edge1" class="edge">
<title>323776720891170730&#45;&gt;&#45;1191758304246453491</title>
<path fill="none" stroke="black" d="M85.17,-415.55C93.65,-423.8 103.96,-433.82 113.31,-442.9"/>
<polygon fill="black" stroke="black" points="110.84,-445.39 120.45,-449.85 115.72,-440.37 110.84,-445.39"/>
</g>
<!-- 1909603587234038384 -->
<g id="node3" class="node">
<title>1909603587234038384</title>
<g id="a_node3"><a xlink:title="A Blockwise Layer with 320 Tasks.&#10;Array Shape: (320,)&#10;Data Type: float64&#10;Chunk Size: (1,)&#10;Chunk Type: numpy.ndarray&#10;">
<polygon fill="none" stroke="black" points="413.5,-271.25 11.25,-271.25 11.25,-235.25 413.5,-235.25 413.5,-271.25"/>
<text xml:space="preserve" text-anchor="middle" x="212.38" y="-246.25" font-family="Helvetica,sans-Serif" font-size="20.00">vectorize__register_and_get_matrix&#45;#2</text>
</a>
</g>
</g>
<!-- &#45;3619788353425323670 -->
<g id="node8" class="node">
<title>&#45;3619788353425323670</title>
<g id="a_node8"><a xlink:title="A Materialized Layer with 320 Tasks.&#10;Array Shape: (320, 3, 3)&#10;Data Type: float64&#10;Chunk Size: (1, 3, 3)&#10;Chunk Type: numpy.ndarray&#10;">
<polygon fill="none" stroke="black" points="424.75,-343.25 0,-343.25 0,-307.25 424.75,-307.25 424.75,-343.25"/>
<text xml:space="preserve" text-anchor="middle" x="212.38" y="-318.25" font-family="Helvetica,sans-Serif" font-size="20.00">vectorize__register_and_get_matrix_0&#45;#2</text>
</a>
</g>
</g>
<!-- 1909603587234038384&#45;&gt;&#45;3619788353425323670 -->
<g id="edge8" class="edge">
<title>1909603587234038384&#45;&gt;&#45;3619788353425323670</title>
<path fill="none" stroke="black" d="M212.38,-271.55C212.38,-278.84 212.38,-287.52 212.38,-295.71"/>
<polygon fill="black" stroke="black" points="208.88,-295.63 212.38,-305.63 215.88,-295.63 208.88,-295.63"/>
</g>
<!-- &#45;5850096236770422925 -->
<g id="node4" class="node">
<title>&#45;5850096236770422925</title>
<g id="a_node4"><a xlink:title="A Blockwise Layer with 51039 Tasks.&#10;">
<polygon fill="none" stroke="black" points="377.88,-55.25 46.88,-55.25 46.88,0 377.88,0 377.88,-55.25"/>
<text xml:space="preserve" text-anchor="middle" x="212.38" y="-13.25" font-family="Helvetica,sans-Serif" font-size="40.00">_dask_block&#45;#3</text>
</a>
</g>
</g>
<!-- &#45;8626490995556199924 -->
<g id="node5" class="node">
<title>&#45;8626490995556199924</title>
<g id="a_node5"><a xlink:title="A Materialized Layer with 321 Tasks.&#10;">
<polygon fill="none" stroke="black" points="277,-127.25 147.75,-127.25 147.75,-91.25 277,-91.25 277,-127.25"/>
<text xml:space="preserve" text-anchor="middle" x="212.38" y="-102.25" font-family="Helvetica,sans-Serif" font-size="20.00">getitem&#45;#4</text>
</a>
</g>
</g>
<!-- &#45;5850096236770422925&#45;&gt;&#45;8626490995556199924 -->
<g id="edge5" class="edge">
<title>&#45;5850096236770422925&#45;&gt;&#45;8626490995556199924</title>
<path fill="none" stroke="black" d="M212.38,-55.58C212.38,-63.37 212.38,-71.9 212.38,-79.78"/>
<polygon fill="black" stroke="black" points="208.88,-79.54 212.38,-89.54 215.88,-79.54 208.88,-79.54"/>
</g>
<!-- &#45;2284665234739453035 -->
<g id="node6" class="node">
<title>&#45;2284665234739453035</title>
<g id="a_node6"><a xlink:title="A Materialized Layer with 320 Tasks.&#10;">
<polygon fill="none" stroke="black" points="204,-199.25 74.75,-199.25 74.75,-163.25 204,-163.25 204,-199.25"/>
<text xml:space="preserve" text-anchor="middle" x="139.38" y="-174.25" font-family="Helvetica,sans-Serif" font-size="20.00">getitem&#45;#5</text>
</a>
</g>
</g>
<!-- &#45;8626490995556199924&#45;&gt;&#45;2284665234739453035 -->
<g id="edge6" class="edge">
<title>&#45;8626490995556199924&#45;&gt;&#45;2284665234739453035</title>
<path fill="none" stroke="black" d="M194.33,-127.55C185.64,-135.88 175.06,-146.03 165.52,-155.18"/>
<polygon fill="black" stroke="black" points="163.35,-152.41 158.56,-161.86 168.2,-157.46 163.35,-152.41"/>
</g>
<!-- 6744954721464991977 -->
<g id="node7" class="node">
<title>6744954721464991977</title>
<g id="a_node7"><a xlink:title="A Materialized Layer with 320 Tasks.&#10;">
<polygon fill="none" stroke="black" points="351,-199.25 221.75,-199.25 221.75,-163.25 351,-163.25 351,-199.25"/>
<text xml:space="preserve" text-anchor="middle" x="286.38" y="-174.25" font-family="Helvetica,sans-Serif" font-size="20.00">getitem&#45;#6</text>
</a>
</g>
</g>
<!-- &#45;8626490995556199924&#45;&gt;6744954721464991977 -->
<g id="edge7" class="edge">
<title>&#45;8626490995556199924&#45;&gt;6744954721464991977</title>
<path fill="none" stroke="black" d="M230.67,-127.55C239.47,-135.88 250.2,-146.03 259.87,-155.18"/>
<polygon fill="black" stroke="black" points="257.27,-157.53 266.94,-161.86 262.08,-152.45 257.27,-157.53"/>
</g>
<!-- &#45;2284665234739453035&#45;&gt;1909603587234038384 -->
<g id="edge4" class="edge">
<title>&#45;2284665234739453035&#45;&gt;1909603587234038384</title>
<path fill="none" stroke="black" d="M157.42,-199.55C166.11,-207.88 176.69,-218.03 186.23,-227.18"/>
<polygon fill="black" stroke="black" points="183.55,-229.46 193.19,-233.86 188.4,-224.41 183.55,-229.46"/>
</g>
<!-- 6744954721464991977&#45;&gt;1909603587234038384 -->
<g id="edge3" class="edge">
<title>6744954721464991977&#45;&gt;1909603587234038384</title>
<path fill="none" stroke="black" d="M268.08,-199.55C259.28,-207.88 248.55,-218.03 238.88,-227.18"/>
<polygon fill="black" stroke="black" points="236.67,-224.45 231.81,-233.86 241.48,-229.53 236.67,-224.45"/>
</g>
<!-- 7140719640703313986 -->
<g id="node9" class="node">
<title>7140719640703313986</title>
<g id="a_node9"><a xlink:title="A Blockwise Layer with 320 Tasks.&#10;Array Shape: (320, 3, 3)&#10;Data Type: float64&#10;Chunk Size: (1, 3, 3)&#10;Chunk Type: numpy.ndarray&#10;">
<polygon fill="none" stroke="black" points="287.88,-415.25 136.88,-415.25 136.88,-379.25 287.88,-379.25 287.88,-415.25"/>
<text xml:space="preserve" text-anchor="middle" x="212.38" y="-390.25" font-family="Helvetica,sans-Serif" font-size="20.00">transpose&#45;#7</text>
</a>
</g>
</g>
<!-- &#45;3619788353425323670&#45;&gt;7140719640703313986 -->
<g id="edge9" class="edge">
<title>&#45;3619788353425323670&#45;&gt;7140719640703313986</title>
<path fill="none" stroke="black" d="M212.38,-343.55C212.38,-350.84 212.38,-359.52 212.38,-367.71"/>
<polygon fill="black" stroke="black" points="208.88,-367.63 212.38,-377.63 215.88,-367.63 208.88,-367.63"/>
</g>
<!-- 7140719640703313986&#45;&gt;&#45;1191758304246453491 -->
<g id="edge2" class="edge">
<title>7140719640703313986&#45;&gt;&#45;1191758304246453491</title>
<path fill="none" stroke="black" d="M194.33,-415.55C185.64,-423.88 175.06,-434.03 165.52,-443.18"/>
<polygon fill="black" stroke="black" points="163.35,-440.41 158.56,-449.86 168.2,-445.46 163.35,-440.41"/>
</g>
</g>
</svg>
